<svg width="197" height="17" fill="none" xmlns="http://www.w3.org/2000/svg"><path d="M2.456 1.192v10.206h8.694V13H.656V1.192h1.8zm16.276 12.024c-1.356 0-2.544-.246-3.564-.738s-1.806-1.188-2.358-2.088c-.552-.9-.828-1.956-.828-3.168v-.234c0-1.212.276-2.268.828-3.168.552-.912 1.338-1.614 2.358-2.106 1.02-.492 2.208-.738 3.564-.738 1.356 0 2.538.246 3.546.738 1.02.492 1.806 1.194 2.358 2.106.552.9.828 1.956.828 3.168v.234c0 1.212-.276 2.268-.828 3.168-.552.9-1.338 1.596-2.358 2.088-1.008.492-2.19.738-3.546.738zm0-1.674c1.548 0 2.754-.378 3.618-1.134.864-.756 1.296-1.806 1.296-3.15V6.97c0-1.356-.432-2.412-1.296-3.168-.864-.768-2.07-1.152-3.618-1.152s-2.76.384-3.636 1.152c-.864.756-1.296 1.812-1.296 3.168v.288c0 1.344.432 2.394 1.296 3.15.876.756 2.088 1.134 3.636 1.134zm20.681-6.156v-.108c0-.48-.21-.918-.63-1.314-.408-.408-.972-.726-1.692-.954-.72-.24-1.512-.36-2.376-.36-1.608 0-2.868.378-3.78 1.134-.9.756-1.35 1.806-1.35 3.15v.342c0 1.38.444 2.436 1.332 3.168.888.732 2.154 1.098 3.798 1.098 2.04 0 3.618-.588 4.734-1.764V8.41h-6.246V6.79h8.028V13h-1.62l-.09-1.44c-1.176 1.104-2.79 1.656-4.842 1.656-1.416 0-2.646-.24-3.69-.72-1.032-.48-1.83-1.17-2.394-2.07-.552-.9-.828-1.956-.828-3.168v-.306c0-1.188.282-2.232.846-3.132.576-.912 1.386-1.614 2.43-2.106 1.044-.492 2.262-.738 3.654-.738 1.272 0 2.4.18 3.384.54.996.36 1.77.87 2.322 1.53.552.648.828 1.392.828 2.232v.108h-1.818zm10.925 7.83c-1.357 0-2.544-.246-3.565-.738-1.02-.492-1.806-1.188-2.358-2.088-.551-.9-.828-1.956-.828-3.168v-.234c0-1.212.276-2.268.828-3.168.553-.912 1.339-1.614 2.358-2.106 1.02-.492 2.208-.738 3.564-.738 1.356 0 2.538.246 3.546.738 1.02.492 1.806 1.194 2.358 2.106.553.9.828 1.956.828 3.168v.234c0 1.212-.276 2.268-.828 3.168-.551.9-1.337 1.596-2.358 2.088-1.008.492-2.19.738-3.546.738zm0-1.674c1.547 0 2.754-.378 3.617-1.134.864-.756 1.297-1.806 1.297-3.15V6.97c0-1.356-.433-2.412-1.297-3.168-.863-.768-2.07-1.152-3.617-1.152-1.549 0-2.76.384-3.636 1.152-.864.756-1.296 1.812-1.296 3.168v.288c0 1.344.431 2.394 1.296 3.15.876.756 2.087 1.134 3.636 1.134zm26.608-10.08l-5.508 6.75V13h-1.782V8.212l-5.526-6.75v-.27h1.998l4.41 5.346 4.41-5.346h1.998v.27zm7.405 11.754c-1.356 0-2.544-.246-3.564-.738s-1.806-1.188-2.358-2.088c-.552-.9-.828-1.956-.828-3.168v-.234c0-1.212.276-2.268.828-3.168.552-.912 1.338-1.614 2.358-2.106 1.02-.492 2.208-.738 3.564-.738 1.356 0 2.538.246 3.546.738 1.02.492 1.806 1.194 2.358 2.106.552.9.828 1.956.828 3.168v.234c0 1.212-.276 2.268-.828 3.168-.552.9-1.338 1.596-2.358 2.088-1.008.492-2.19.738-3.546.738zm0-1.674c1.548 0 2.754-.378 3.618-1.134.864-.756 1.296-1.806 1.296-3.15V6.97c0-1.356-.432-2.412-1.296-3.168-.864-.768-2.07-1.152-3.618-1.152s-2.76.384-3.636 1.152c-.864.756-1.296 1.812-1.296 3.168v.288c0 1.344.432 2.394 1.296 3.15.876.756 2.088 1.134 3.636 1.134zm27.536 1.188V13h-1.836l-1.404-2.988h-6.66L100.583 13h-1.836v-.27l5.58-11.538h1.98l5.58 11.538zm-4.014-4.338l-2.556-5.418-2.556 5.418h5.112zM116.612 13c-.876 0-1.542-.198-1.998-.594-.444-.408-.666-1.002-.666-1.782V.472h1.728v9.864c0 .408.096.702.288.882.192.168.51.252.954.252h.774V13h-1.08zm5.748 0c-.876 0-1.542-.198-1.998-.594-.444-.408-.666-1.002-.666-1.782V.472h1.728v9.864c0 .408.096.702.288.882.192.168.51.252.954.252h.774V13h-1.08zm21.793-8.028c0 .984-.354 1.782-1.062 2.394-.696.612-1.656.948-2.88 1.008l3.888 4.356V13h-2.052l-4.158-4.626h-3.492V13h-1.8V1.192h7.272c1.332 0 2.376.318 3.132.954.768.624 1.152 1.488 1.152 2.592v.234zm-1.818-.288c0-.6-.222-1.062-.666-1.386-.432-.336-1.044-.504-1.836-.504h-5.436V6.79h5.436c.792 0 1.404-.162 1.836-.486.444-.336.666-.804.666-1.404v-.216zm6.546-.594V13h-1.728V4.09h1.728zm-.864-1.422c-.348 0-.63-.102-.846-.306-.216-.216-.324-.492-.324-.828 0-.324.108-.588.324-.792.216-.204.498-.306.846-.306s.63.102.846.306c.216.204.324.468.324.792 0 .336-.108.612-.324.828-.216.204-.498.306-.846.306zm13.809 1.422v8.154c0 1.32-.438 2.322-1.314 3.006-.864.684-2.13 1.026-3.798 1.026-1.08 0-2.016-.138-2.808-.414-.78-.264-1.386-.654-1.818-1.17a2.697 2.697 0 01-.63-1.782v-.144h1.764v.144c0 .528.318.954.954 1.278.636.336 1.458.504 2.466.504 1.104 0 1.956-.21 2.556-.63.6-.408.9-.996.9-1.764v-.882a5.601 5.601 0 01-1.602.882c-.588.204-1.2.306-1.836.306-1.668 0-2.958-.36-3.87-1.08-.912-.732-1.368-1.764-1.368-3.096V8.14c0-1.344.462-2.388 1.386-3.132.924-.756 2.208-1.134 3.852-1.134 1.416 0 2.586.408 3.51 1.224l.054-1.008h1.602zm-5.13 6.948c.72 0 1.38-.126 1.98-.378.612-.264 1.086-.612 1.422-1.044V6.898c-.336-.432-.81-.78-1.422-1.044a4.76 4.76 0 00-1.98-.414c-1.128 0-1.992.234-2.592.702-.6.456-.9 1.122-.9 1.998v.288c0 1.74 1.164 2.61 3.492 2.61zm13.319-7.164c1.548 0 2.724.39 3.528 1.17.804.768 1.206 1.902 1.206 3.402V13h-1.71V8.446c0-.972-.276-1.71-.828-2.214-.54-.516-1.326-.774-2.358-.774-.696 0-1.338.162-1.926.486a3.296 3.296 0 00-1.314 1.314V13h-1.728V.472h1.728v4.734a4.601 4.601 0 011.53-.99 5.132 5.132 0 011.872-.342zm10.843 1.728v4.5c0 .444.126.786.378 1.026.252.228.606.342 1.062.342h2.124V13h-2.268c-.936 0-1.674-.252-2.214-.756-.528-.504-.792-1.2-.792-2.088V5.602h-3.33V4.09h2.844c.204 0 .342-.036.414-.108.072-.084.108-.222.108-.414V1.696h1.674V4.09h4.104v1.512h-4.104zm10.26 7.614c-1.608 0-2.874-.258-3.798-.774-.924-.516-1.386-1.224-1.386-2.124v-.126h1.728v.126c0 .888 1.164 1.332 3.492 1.332 1.032 0 1.818-.096 2.358-.288.54-.204.81-.492.81-.864v-.126c0-.3-.168-.522-.504-.666-.336-.144-.93-.264-1.782-.36l-2.07-.216c-1.284-.132-2.22-.39-2.808-.774-.588-.384-.882-.936-.882-1.656v-.18c0-.828.426-1.476 1.278-1.944.852-.468 2.034-.702 3.546-.702 1.56 0 2.778.258 3.654.774.876.504 1.314 1.206 1.314 2.106v.126h-1.71v-.126c0-.432-.282-.762-.846-.99-.552-.228-1.38-.342-2.484-.342-.936 0-1.668.096-2.196.288-.516.18-.774.438-.774.774v.126c0 .3.144.528.432.684.3.156.798.264 1.494.324l2.106.198c1.404.132 2.424.402 3.06.81.636.396.954.966.954 1.71v.18c0 .84-.444 1.5-1.332 1.98-.888.48-2.106.72-3.654.72z" fill="#fff"/></svg>