<svg width="27" height="6" fill="none" xmlns="http://www.w3.org/2000/svg"><path d="M25.439 0c.397 0 .69.038.88.114.19.076.337.216.442.422.12.244.194.626.22 1.146.013.222.019.603.019 1.145 0 .677-.023 1.175-.068 1.495-.042.314-.12.563-.234.747-.154.244-.397.385-.731.422-.166.028-.597.041-1.295.041-.37 0-.647-.022-.83-.065a.974.974 0 01-.452-.236c-.153-.151-.26-.39-.32-.714-.057-.33-.086-.856-.086-1.576 0-.818.014-1.357.041-1.617.072-.72.337-1.134.794-1.243.229-.054.769-.081 1.62-.081zm-.429 1.024h-.356c-.078 0-.172.008-.28.024-.108.01-.185.019-.23.024a.423.423 0 00-.162.073.481.481 0 00-.122.106.706.706 0 00-.077.162.744.744 0 00-.054.22c-.003.054-.01.154-.023.3a6.205 6.205 0 00-.013.374v1.031a4.311 4.311 0 00.067.732c.015.06.047.127.095.203.051.07.098.116.14.138.045.016.119.038.221.065.102.022.197.033.284.033h.393c.43 0 .716-.011.857-.033a.586.586 0 00.338-.154c.085-.082.142-.23.172-.447s.045-.596.045-1.137v-.463a7.458 7.458 0 00-.036-.658.742.742 0 00-.054-.212.637.637 0 00-.072-.162.473.473 0 00-.127-.106c-.063-.043-.115-.065-.158-.065a9.547 9.547 0 00-.225-.024 1.837 1.837 0 00-.275-.024h-.348zm-4.45 1.421l.984-1.998c.072-.163.14-.27.203-.325.063-.054.152-.076.266-.065h.29c.104 0 .157.078.157.235a.511.511 0 01-.054.187l-1.502 2.957v1.511c.006.352-.086.528-.276.528h-.144c-.19 0-.281-.176-.275-.528v-1.51L18.693.478a.432.432 0 01-.055-.195c0-.151.053-.227.159-.227h.302c.114-.01.203.01.266.065.063.054.13.162.203.325l.993 1.998zM15.277 0c.397 0 .69.038.88.114a.85.85 0 01.442.422c.12.244.194.626.22 1.146.013.222.019.603.019 1.145 0 .677-.023 1.175-.068 1.495-.042.314-.12.563-.235.747-.153.244-.397.385-.73.422-.166.028-.598.041-1.295.041-.37 0-.647-.022-.83-.065a.973.973 0 01-.452-.236c-.153-.151-.26-.39-.32-.714-.057-.33-.086-.856-.086-1.576 0-.818.014-1.357.04-1.617.073-.72.338-1.134.795-1.243.228-.054.768-.081 1.62-.081zm-.429 1.024h-.357c-.078 0-.17.008-.28.024-.107.01-.184.019-.23.024a.422.422 0 00-.162.073.484.484 0 00-.122.106.71.71 0 00-.076.162.746.746 0 00-.054.22c-.003.054-.01.154-.023.3a6.306 6.306 0 00-.014.374v1.031a4.28 4.28 0 00.068.732c.015.06.047.127.095.203a.45.45 0 00.14.138c.045.016.119.038.22.065.103.022.198.033.285.033h.393c.43 0 .716-.011.857-.033a.586.586 0 00.338-.154c.085-.082.142-.23.172-.447s.045-.596.045-1.137v-.463a7.458 7.458 0 00-.036-.658.746.746 0 00-.054-.212.636.636 0 00-.073-.162.47.47 0 00-.126-.106c-.063-.043-.116-.065-.158-.065a9.547 9.547 0 00-.225-.024 1.837 1.837 0 00-.276-.024h-.347zm-3.447 2.372h-1.096a.243.243 0 01-.208-.106.572.572 0 01-.072-.309c0-.124.024-.222.072-.292a.238.238 0 01.208-.114h1.48a.21.21 0 01.22.114c.052.081.076.203.073.365v.098c0 .509-.01.875-.027 1.097a2.833 2.833 0 01-.113.609c-.084.281-.24.474-.47.577-.132.06-.572.089-1.321.089-.752 0-1.212-.06-1.38-.179a.988.988 0 01-.34-.398 2.29 2.29 0 01-.162-.69c-.033-.282-.05-.761-.05-1.438 0-.715.017-1.224.05-1.527a2.17 2.17 0 01.194-.74c.127-.243.307-.392.542-.446.222-.065.72-.098 1.493-.098.44 0 .754.035.943.106.193.07.337.206.433.406.115.233.172.506.172.82a.653.653 0 01-.072.333c-.046.082-.109.122-.19.122h-.135c-.15.006-.245-.116-.285-.365a.527.527 0 00-.135-.285.48.48 0 00-.253-.113 3.053 3.053 0 00-.55-.033c-.55 0-.904.016-1.06.049-.157.032-.263.11-.32.236-.085.167-.127.63-.127 1.389 0 .536.01.918.032 1.145.024.222.067.382.13.48a.464.464 0 00.303.21c.138.028.412.041.82.041.41 0 .673-.013.79-.04a.41.41 0 00.271-.204c.096-.167.145-.436.145-.804a1.12 1.12 0 00-.005-.105zM5.905 0c.397 0 .69.038.88.114.19.076.337.216.442.422.12.244.194.626.221 1.146.012.222.018.603.018 1.145 0 .677-.022 1.175-.067 1.495-.043.314-.12.563-.235.747-.153.244-.397.385-.731.422-.165.028-.597.041-1.295.041-.37 0-.647-.022-.83-.065a.973.973 0 01-.451-.236c-.154-.151-.26-.39-.32-.714-.058-.33-.086-.856-.086-1.576 0-.818.013-1.357.04-1.617.072-.72.337-1.134.794-1.243C4.514.027 5.054 0 5.905 0zm-.429 1.024H5.12c-.078 0-.171.008-.28.024-.108.01-.185.019-.23.024a.422.422 0 00-.162.073.483.483 0 00-.122.106.707.707 0 00-.077.162.744.744 0 00-.054.22c-.003.054-.01.154-.022.3-.01.147-.014.271-.014.374v1.031a4.298 4.298 0 00.068.732c.015.06.046.127.094.203.052.07.098.116.14.138.045.016.12.038.221.065.103.022.197.033.285.033h.392c.43 0 .716-.011.857-.033a.586.586 0 00.339-.154c.084-.082.141-.23.171-.447.03-.217.045-.596.045-1.137v-.463a7.448 7.448 0 00-.036-.658.743.743 0 00-.054-.212.637.637 0 00-.072-.162.472.472 0 00-.126-.106c-.064-.043-.116-.065-.158-.065a9.563 9.563 0 00-.226-.024 1.837 1.837 0 00-.275-.024h-.348zM.695 4.46H2.6c.19-.017.287.135.293.455v.105c-.006.32-.103.471-.293.455H.294a.225.225 0 01-.226-.122C.02 5.267-.002 5.131 0 4.947V.585C-.006.233.086.057.275.057H.42c.19 0 .28.176.275.528V4.46z" fill="#000"/></svg>