<svg width="40" height="40" fill="none" xmlns="http://www.w3.org/2000/svg"><path d="M20 3.333C10.8 3.333 3.333 10.8 3.333 20c0 9.2 7.467 16.667 16.667 16.667 9.2 0 16.667-7.467 16.667-16.667C36.667 10.8 29.2 3.333 20 3.333zm7.733 11.334C27.483 17.3 26.4 23.7 25.85 26.65c-.233 1.25-.7 1.667-1.133 1.717-.967.083-1.7-.634-2.634-1.25-1.466-.967-2.3-1.567-3.716-2.5-1.65-1.084-.584-1.684.366-2.65.25-.25 4.517-4.134 4.6-4.484a.334.334 0 00-.083-.3c-.1-.083-.233-.05-.35-.033-.15.033-2.483 1.583-7.033 4.65-.667.45-1.267.683-1.8.667-.6-.017-1.734-.334-2.584-.617-1.05-.333-1.866-.517-1.8-1.1.034-.3.45-.6 1.234-.917 4.866-2.116 8.1-3.516 9.716-4.183 4.634-1.933 5.584-2.267 6.217-2.267.133 0 .45.034.65.2a.661.661 0 01.233.45c-.016.1.017.4 0 .634z" fill="#fff"/></svg>